<?xml version="1.0" encoding="UTF-8"?>
<svg width="658px" height="901px" viewBox="0 0 658 901" version="1.1" xmlns="http://www.w3.org/2000/svg" xmlns:xlink="http://www.w3.org/1999/xlink">
    <!-- Generator: Sketch 40.3 (33839) - http://www.bohemiancoding.com/sketch -->
    <title>Untitled</title>
    <desc>Created with Sketch.</desc>
    <defs></defs>
    <g id="Page-1" stroke="none" stroke-width="1" fill="none" fill-rule="evenodd">
        <g id="delete" fill="#221D23">
            <g id="Page-1">
                <g id="delete">
                    <g id="Group">
                        <path d="M55.415,880.5 C55.415,891.546 64.369,900.5 75.415,900.5 L583.085,900.5 C594.131,900.5 603.085,891.546 603.085,880.5 L603.085,232.487 L55.415,232.487 L55.415,880.5 L55.415,880.5 L55.415,880.5 L55.415,880.5 Z M441.75,342.766 L516.75,342.766 L516.75,778.795 L441.75,778.795 L441.75,342.766 L441.75,342.766 L441.75,342.766 Z M291.75,342.766 L366.75,342.766 L366.75,778.795 L291.75,778.795 L291.75,342.766 L291.75,342.766 L291.75,342.766 Z M141.75,342.766 L216.75,342.766 L216.75,778.795 L141.75,778.795 L141.75,342.766 L141.75,342.766 L141.75,342.766 Z" id="Shape"></path>
                        <path d="M497.825,91.911 L497.825,20 C497.825,8.954 488.871,0 477.825,0 L180.675,0 C169.629,0 160.675,8.954 160.675,20 L160.675,91.911 L160.675,104.411 L160.675,116.911 L20.874,116.911 C9.828,116.911 0.874,125.865 0.874,136.911 L0.874,187.487 C0.874,198.532 9.828,207.487 20.874,207.487 L55.415,207.487 L603.085,207.487 L637.626,207.487 C648.672,207.487 657.626,198.532 657.626,187.487 L657.626,136.911 C657.626,125.865 648.672,116.911 637.626,116.911 L497.825,116.911 L497.825,104.411 L497.825,91.911 L497.825,91.911 L497.825,91.911 Z M422.825,112.799 L235.675,112.799 L235.675,104.41 L235.675,91.91 L235.675,75 L422.825,75 L422.825,91.911 L422.825,104.411 L422.825,112.799 L422.825,112.799 L422.825,112.799 Z" id="Shape"></path>
                    </g>
                </g>
            </g>
        </g>
    </g>
</svg>